<svg width="60" height="60" viewBox="0 0 60 60" fill="none" xmlns="http://www.w3.org/2000/svg">
<rect opacity="0.352743" width="60" height="60" rx="12" fill="#F8BA2B"/>
<path d="M41.3283 26.1617C42.7866 24.7034 42.1216 23 41.3283 22.1717L37.8283 18.6717C36.3583 17.2134 34.6666 17.8784 33.8383 18.6717L31.855 20.6667H28.8333C26.6166 20.6667 25.3333 21.8334 24.68 23.175L19.5 28.355V33.0217L18.6716 33.8384C17.2133 35.3084 17.8783 37 18.6716 37.8284L22.1716 41.3284C22.8016 41.9584 23.4783 42.1917 24.12 42.1917C24.9483 42.1917 25.7066 41.7834 26.1616 41.3284L29.3116 38.1667H33.5C35.4833 38.1667 36.4866 36.93 36.8483 35.7167C38.1666 35.3667 38.89 34.3634 39.1816 33.3834C40.99 32.9167 41.6666 31.2017 41.6666 30V26.5H40.9783L41.3283 26.1617ZM39.3333 30C39.3333 30.525 39.1116 31.1667 38.1666 31.1667H37V32.3334C37 32.8584 36.7783 33.5 35.8333 33.5H34.6666V34.6667C34.6666 35.1917 34.445 35.8334 33.5 35.8334H28.355L24.5283 39.66C24.1666 39.9984 23.9566 39.8 23.8283 39.6717L20.34 36.195C20.0016 35.8334 20.2 35.6234 20.3283 35.495L21.8333 33.9784V29.3117L24.1666 26.9784V28.8334C24.1666 30.245 25.1 32.3334 27.6666 32.3334C30.2333 32.3334 31.1666 30.245 31.1666 28.8334H39.3333V30ZM39.6716 24.505L37.6883 26.5H28.8333V28.8334C28.8333 29.3584 28.6116 30 27.6666 30C26.7216 30 26.5 29.3584 26.5 28.8334V25.3334C26.5 24.7967 26.6983 23 28.8333 23H32.8116L35.4716 20.34C35.8333 20.0017 36.0433 20.2 36.1716 20.3284L39.66 23.805C39.9983 24.1667 39.8 24.3767 39.6716 24.505Z" fill="#9F6904"/>
</svg>
