<svg width="60" height="60" viewBox="0 0 60 60" fill="none" xmlns="http://www.w3.org/2000/svg">
<rect opacity="0.352743" y="-1.52588e-05" width="60" height="60" rx="12" fill="white"/>
<g clip-path="url(#clip0_12_10)">
<path d="M22.7931 14C23.0809 14 23.3569 14.1143 23.5604 14.3178C23.7638 14.5213 23.8781 14.7972 23.8781 15.085V17.1139H35.5295V15.0989C35.5295 14.8112 35.6438 14.5352 35.8473 14.3317C36.0508 14.1282 36.3267 14.0139 36.6145 14.0139C36.9023 14.0139 37.1782 14.1282 37.3817 14.3317C37.5852 14.5352 37.6995 14.8112 37.6995 15.0989V17.1139H41.9C42.7219 17.1139 43.5102 17.4403 44.0915 18.0214C44.6728 18.6024 44.9996 19.3905 45 20.2124V41.9015C44.9996 42.7234 44.6728 43.5115 44.0915 44.0926C43.5102 44.6736 42.7219 45 41.9 45H17.1C16.2781 45 15.4898 44.6736 14.9085 44.0926C14.3272 43.5115 14.0004 42.7234 14 41.9015V20.2124C14.0004 19.3905 14.3272 18.6024 14.9085 18.0214C15.4898 17.4403 16.2781 17.1139 17.1 17.1139H21.7081V15.0834C21.7086 14.7959 21.8231 14.5204 22.0265 14.3172C22.2299 14.1141 22.5057 14 22.7931 14ZM16.17 26.0001V41.9015C16.17 42.0237 16.1941 42.1446 16.2408 42.2574C16.2875 42.3703 16.356 42.4728 16.4424 42.5591C16.5287 42.6455 16.6313 42.714 16.7441 42.7607C16.8569 42.8075 16.9779 42.8315 17.1 42.8315H41.9C42.0221 42.8315 42.1431 42.8075 42.2559 42.7607C42.3687 42.714 42.4713 42.6455 42.5576 42.5591C42.644 42.4728 42.7125 42.3703 42.7592 42.2574C42.8059 42.1446 42.83 42.0237 42.83 41.9015V26.0218L16.17 26.0001ZM24.3338 36.6594V39.2417H21.75V36.6594H24.3338ZM30.7911 36.6594V39.2417H28.2088V36.6594H30.7911ZM37.25 36.6594V39.2417H34.6661V36.6594H37.25ZM24.3338 30.4951V33.0774H21.75V30.4951H24.3338ZM30.7911 30.4951V33.0774H28.2088V30.4951H30.7911ZM37.25 30.4951V33.0774H34.6661V30.4951H37.25ZM21.7081 19.2824H17.1C16.9779 19.2824 16.8569 19.3064 16.7441 19.3532C16.6313 19.3999 16.5287 19.4684 16.4424 19.5548C16.356 19.6411 16.2875 19.7437 16.2408 19.8565C16.1941 19.9693 16.17 20.0903 16.17 20.2124V23.8316L42.83 23.8533V20.2124C42.83 20.0903 42.8059 19.9693 42.7592 19.8565C42.7125 19.7437 42.644 19.6411 42.5576 19.5548C42.4713 19.4684 42.3687 19.3999 42.2559 19.3532C42.1431 19.3064 42.0221 19.2824 41.9 19.2824H37.6995V20.7223C37.6995 21.0101 37.5852 21.2861 37.3817 21.4895C37.1782 21.693 36.9023 21.8073 36.6145 21.8073C36.3267 21.8073 36.0508 21.693 35.8473 21.4895C35.6438 21.2861 35.5295 21.0101 35.5295 20.7223V19.2824H23.8781V20.7084C23.8781 20.9961 23.7638 21.2721 23.5604 21.4756C23.3569 21.6791 23.0809 21.7934 22.7931 21.7934C22.5054 21.7934 22.2294 21.6791 22.0259 21.4756C21.8225 21.2721 21.7081 20.9961 21.7081 20.7084V19.2824Z" fill="white"/>
</g>
<defs>
<clipPath id="clip0_12_10">
<rect width="31" height="31" fill="white" transform="translate(14 14)"/>
</clipPath>
</defs>
</svg>
