<svg width="60" height="60" viewBox="0 0 60 60" fill="none" xmlns="http://www.w3.org/2000/svg">
<rect opacity="0.352743" width="60" height="60" rx="12" fill="#F8BA2B"/>
<path d="M41.6725 30.0525C41.5035 29.9914 41.3198 29.9838 41.1463 30.0308C40.9729 30.0778 40.8181 30.177 40.703 30.315L37.4025 34.2753L32.6469 33.4108L29.4951 25.5778C29.3063 25.0779 28.9698 24.6474 28.5305 24.3433C28.0912 24.0391 27.5698 23.8758 27.0355 23.875H23.483C23.0073 23.8752 22.5407 24.0047 22.1329 24.2495L17.75 26.8798V32.4798L22.125 33.276V42.25H23.875V33.5936L26.9944 34.1606L28.25 37.175V42.25H30V36.825L29.0454 34.5343L36.1162 35.8196L31.953 40.815C31.8466 40.9428 31.7788 41.0982 31.7575 41.2631C31.7362 41.428 31.7624 41.5955 31.8329 41.7461C31.9034 41.8967 32.0154 42.024 32.1557 42.1133C32.2959 42.2025 32.4587 42.2499 32.625 42.25H41.375C41.6071 42.25 41.8296 42.1578 41.9937 41.9937C42.1578 41.8296 42.25 41.6071 42.25 41.375V30.875C42.2499 30.6952 42.1944 30.5197 42.0911 30.3726C41.9878 30.2254 41.8416 30.1136 41.6725 30.0525ZM19.5 31.0203V27.8703L22.125 26.2953V31.4971L19.5 31.0203ZM23.875 31.8156V25.625H27.0373C27.2186 25.6261 27.3952 25.6829 27.5431 25.7878C27.691 25.8927 27.8031 26.0405 27.8641 26.2113L30.6116 33.0406L23.875 31.8156ZM40.5 40.5H34.4931L40.5 33.2918V40.5ZM26.9375 23C26.3318 23 25.7397 22.8204 25.2361 22.4839C24.7324 22.1474 24.3399 21.6691 24.1081 21.1095C23.8763 20.5499 23.8157 19.9341 23.9338 19.34C24.052 18.746 24.3437 18.2003 24.772 17.772C25.2003 17.3437 25.746 17.052 26.34 16.9338C26.9341 16.8157 27.5499 16.8763 28.1095 17.1081C28.6691 17.3399 29.1474 17.7324 29.4839 18.2361C29.8204 18.7397 30 19.3318 30 19.9375C29.9991 20.7494 29.6761 21.5279 29.102 22.102C28.5279 22.6761 27.7494 22.9991 26.9375 23ZM26.9375 18.625C26.6779 18.625 26.4242 18.702 26.2083 18.8462C25.9925 18.9904 25.8242 19.1954 25.7249 19.4352C25.6256 19.6751 25.5996 19.939 25.6502 20.1936C25.7009 20.4482 25.8259 20.682 26.0094 20.8656C26.193 21.0491 26.4268 21.1741 26.6814 21.2248C26.936 21.2754 27.1999 21.2494 27.4398 21.1501C27.6796 21.0508 27.8846 20.8825 28.0288 20.6667C28.173 20.4508 28.25 20.1971 28.25 19.9375C28.25 19.5894 28.1117 19.2556 27.8656 19.0094C27.6194 18.7633 27.2856 18.625 26.9375 18.625Z" fill="#9F6904"/>
</svg>
