<svg width="60" height="60" viewBox="0 0 60 60" fill="none" xmlns="http://www.w3.org/2000/svg">
<rect opacity="0.352743" width="60" height="60" rx="12" fill="#F8BA2B"/>
<path d="M23 25.9167C23 23.9054 23.799 21.9766 25.2211 20.5544C26.6433 19.1323 28.5721 18.3333 30.5833 18.3333C32.5946 18.3333 34.5234 19.1323 35.9456 20.5544C37.3677 21.9766 38.1667 23.9054 38.1667 25.9167C38.1667 32.9167 31.1667 32.9167 31.1667 37.5833C31.1667 38.1196 31.061 38.6505 30.8558 39.146C30.6506 39.6414 30.3499 40.0915 29.9707 40.4707C29.5915 40.8499 29.1414 41.1506 28.646 41.3558C28.1505 41.561 27.6196 41.6667 27.0833 41.6667C26.5471 41.6667 26.0161 41.561 25.5207 41.3558C25.0253 41.1506 24.5752 40.8499 24.196 40.4707C23.8168 40.0915 23.516 39.6414 23.3108 39.146C23.1056 38.6505 23 38.1196 23 37.5833" stroke="#9F6904" stroke-width="2" stroke-linecap="round" stroke-linejoin="round"/>
<path d="M33.5 25.9167C33.5 25.1431 33.1927 24.4013 32.6457 23.8543C32.0987 23.3073 31.3568 23 30.5833 23C29.8097 23 29.0679 23.3073 28.5209 23.8543C27.9739 24.4013 27.6666 25.1431 27.6666 25.9167V27.0833C28.2855 27.0833 28.879 27.3292 29.3165 27.7668C29.7541 28.2043 30 28.7978 30 29.4167C30 30.0355 29.7541 30.629 29.3165 31.0666C28.879 31.5042 28.2855 31.75 27.6666 31.75" stroke="#9F6904" stroke-width="2" stroke-linecap="round" stroke-linejoin="round"/>
</svg>
