<svg width="60" height="60" viewBox="0 0 60 60" fill="none" xmlns="http://www.w3.org/2000/svg">
<rect opacity="0.352743" width="60" height="60" rx="12" fill="#F8BA2B"/>
<path d="M43.0845 21.238C43.072 21.0239 42.9814 20.8219 42.8297 20.6703C42.6781 20.5186 42.4761 20.428 42.262 20.4155C36.6008 20.0873 32.0552 21.8089 30.1017 25.0333C28.8111 27.165 28.8133 29.7539 30.0842 32.2236C29.3607 33.0847 28.832 34.0921 28.5344 35.1767L26.7549 33.3906C27.6102 31.6045 27.5774 29.743 26.6455 28.1964C25.2017 25.8131 21.8691 24.5356 17.7314 24.7784C17.5174 24.7909 17.3153 24.8816 17.1637 25.0332C17.0121 25.1849 16.9214 25.3869 16.9089 25.6009C16.665 29.7386 17.9436 33.0713 20.3269 34.515C21.1133 34.9956 22.0171 35.2499 22.9388 35.25C23.8333 35.2389 24.714 35.027 25.5156 34.6298L28.25 37.3642V40.5C28.25 40.7321 28.3422 40.9546 28.5063 41.1187C28.6704 41.2828 28.8929 41.375 29.125 41.375C29.3571 41.375 29.5796 41.2828 29.7437 41.1187C29.9078 40.9546 30 40.7321 30 40.5V37.2745C29.996 35.8825 30.4697 34.5312 31.342 33.4464C32.4674 34.0346 33.7156 34.3493 34.9853 34.3652C36.2129 34.3691 37.4177 34.0338 38.4667 33.3961C41.6911 31.4448 43.417 26.8992 43.0845 21.238ZM21.2292 33.0188C19.5514 32.0027 18.602 29.5975 18.625 26.5C21.7225 26.4738 24.1277 27.4264 25.1438 29.1042C25.6742 29.9792 25.7606 30.9997 25.4128 32.0508L22.743 29.3809C22.5776 29.2238 22.3573 29.1374 22.1291 29.1404C21.9009 29.1433 21.6829 29.2352 21.5216 29.3966C21.3602 29.5579 21.2683 29.7759 21.2654 30.0041C21.2625 30.2323 21.3488 30.4525 21.5059 30.618L24.1758 33.2878C23.1247 33.6356 22.1053 33.5492 21.2292 33.0188ZM37.56 31.9009C36.0944 32.788 34.3717 32.8558 32.6217 32.1197L38.4941 26.2463C38.6512 26.0808 38.7376 25.8605 38.7346 25.6324C38.7317 25.4042 38.6398 25.1862 38.4784 25.0249C38.3171 24.8635 38.0991 24.7716 37.8709 24.7687C37.6428 24.7657 37.4225 24.8521 37.257 25.0092L31.3836 30.875C30.6442 29.125 30.7109 27.4013 31.6024 25.9367C33.127 23.4211 36.743 22.0189 41.3728 22.1272C41.4778 26.7559 40.0778 30.3763 37.56 31.9009Z" fill="#9F6904"/>
</svg>
