<svg width="60" height="60" viewBox="0 0 60 60" fill="none" xmlns="http://www.w3.org/2000/svg">
<rect opacity="0.352743" width="60" height="60" rx="12" fill="#F8BA2B"/>
<path d="M33.5 28.25C33.5 25.0283 31.0191 22.4167 27.9584 22.4167C24.8976 22.4167 22.4167 25.0283 22.4167 28.25M30 38.1667C35.477 38.1667 39.9167 34.0489 39.9167 28.25H20.0834C20.0834 34.0489 24.5231 38.1667 30 38.1667Z" stroke="#9F6904" stroke-width="2"/>
<path d="M38.7501 28.25C38.7501 26.3168 37.1366 24.75 35.1462 24.75C34.3045 24.75 33.5304 25.03 32.9167 25.5002" stroke="#9F6904" stroke-width="2"/>
<path d="M35.25 24.75L37 18.9167M38.1667 26.5L40.5 22.4167" stroke="#9F6904" stroke-width="2" stroke-linecap="round"/>
<path d="M26.5 37.5834L25.3334 41.0834H34.6667L33.5 37.5834" stroke="#9F6904" stroke-width="2" stroke-linecap="round" stroke-linejoin="round"/>
</svg>
