<svg width="60" height="60" viewBox="0 0 60 60" fill="none" xmlns="http://www.w3.org/2000/svg">
<rect opacity="0.352743" width="60" height="60" rx="12" fill="#F8BA2B"/>
<path d="M23 18.3333C21.8333 21.8333 24.1667 21.8333 23 25.3333M27.6667 18.3333C26.5 21.8333 28.8333 21.8333 27.6667 25.3333" stroke="#9F6904" stroke-width="2" stroke-linecap="round" stroke-linejoin="round"/>
<path d="M20.6667 41.6667C21.9554 41.6667 23 40.622 23 39.3333C23 38.0447 21.9554 37 20.6667 37C19.378 37 18.3334 38.0447 18.3334 39.3333C18.3334 40.622 19.378 41.6667 20.6667 41.6667Z" stroke="#9F6904" stroke-width="2" stroke-linecap="round" stroke-linejoin="round"/>
<path d="M22.3 37.7L25.3334 34.6667M28.6 31.4L32.3334 27.6667" stroke="#9F6904" stroke-width="2" stroke-linecap="round" stroke-linejoin="round"/>
<path d="M30.0001 41.6667C31.2887 41.6667 32.3334 40.622 32.3334 39.3333C32.3334 38.0447 31.2887 37 30.0001 37C28.7114 37 27.6667 38.0447 27.6667 39.3333C27.6667 40.622 28.7114 41.6667 30.0001 41.6667Z" stroke="#9F6904" stroke-width="2" stroke-linecap="round" stroke-linejoin="round"/>
<path d="M18.3334 27.6667L28.3667 37.7M37 18.3333H39.3334C39.9522 18.3333 40.5457 18.5792 40.9833 19.0167C41.4209 19.4543 41.6667 20.0478 41.6667 20.6667V39.3333C41.6667 39.9522 41.4209 40.5457 40.9833 40.9832C40.5457 41.4208 39.9522 41.6667 39.3334 41.6667H37M37 23H41.6667M37 27.6667H41.6667M37 32.3333H41.6667M37 37H41.6667" stroke="#9F6904" stroke-width="2" stroke-linecap="round" stroke-linejoin="round"/>
</svg>
