<svg width="28" height="28" viewBox="0 0 28 28" fill="none" xmlns="http://www.w3.org/2000/svg">
<g clip-path="url(#clip0_33_311)">
<path d="M14 1.75C10.7511 1.75 7.63527 3.04062 5.33794 5.33794C3.04062 7.63526 1.75 10.7511 1.75 14C1.75 17.2489 3.04062 20.3647 5.33794 22.6621C7.63526 24.9594 10.7511 26.25 14 26.25L14 1.75ZM14 -1.22392e-06C17.713 -8.99315e-07 21.274 1.47499 23.8995 4.1005C26.525 6.72601 28 10.287 28 14C28 17.713 26.525 21.274 23.8995 23.8995C21.274 26.525 17.713 28 14 28C10.287 28 6.72601 26.525 4.1005 23.8995C1.475 21.274 8.99315e-07 17.713 1.22392e-06 14C1.54852e-06 10.287 1.475 6.72601 4.10051 4.1005C6.72602 1.47499 10.287 -1.54852e-06 14 -1.22392e-06Z" fill="#B78E42"/>
</g>
<defs>
<clipPath id="clip0_33_311">
<rect width="28" height="28" fill="white"/>
</clipPath>
</defs>
</svg>
