<svg width="60" height="60" viewBox="0 0 60 60" fill="none" xmlns="http://www.w3.org/2000/svg">
<rect opacity="0.352743" width="60" height="60" rx="12" fill="#F8BA2B"/>
<path fill-rule="evenodd" clip-rule="evenodd" d="M34.9583 20.375V22.3467L37.2916 24.2133V20.375H34.9583ZM39.0416 25.6133V20.0833C39.0416 19.2783 38.3883 18.625 37.5833 18.625H34.6666C33.8616 18.625 33.2083 19.2783 33.2083 20.0833V20.9467L32.7334 20.5663C31.9576 19.9455 30.9936 19.6073 29.9999 19.6073C29.0063 19.6073 28.0422 19.9455 27.2664 20.5663L17.7873 28.1497C17.6059 28.2946 17.4896 28.5057 17.4639 28.7364C17.4382 28.9671 17.5052 29.1986 17.6502 29.3799C17.7951 29.5612 18.0062 29.6775 18.2369 29.7033C18.4676 29.729 18.6991 29.662 18.8804 29.517L19.7916 28.7867V40.7917H18.3333C18.1012 40.7917 17.8786 40.8839 17.7145 41.0479C17.5504 41.212 17.4583 41.4346 17.4583 41.6667C17.4583 41.8987 17.5504 42.1213 17.7145 42.2854C17.8786 42.4495 18.1012 42.5417 18.3333 42.5417H41.6666C41.8987 42.5417 42.1212 42.4495 42.2853 42.2854C42.4494 42.1213 42.5416 41.8987 42.5416 41.6667C42.5416 41.4346 42.4494 41.212 42.2853 41.0479C42.1212 40.8839 41.8987 40.7917 41.6666 40.7917H40.2083V28.7867L41.1206 29.517C41.3022 29.6585 41.5323 29.7228 41.761 29.6958C41.9896 29.6688 42.1985 29.5528 42.3421 29.3729C42.4858 29.1929 42.5528 28.9636 42.5286 28.7347C42.5043 28.5057 42.3908 28.2955 42.2126 28.1497L39.0416 25.6133ZM38.4583 27.3867L31.6403 21.9325C31.1747 21.5599 30.5962 21.3569 29.9999 21.3569C29.4036 21.3569 28.8251 21.5599 28.3596 21.9325L21.5416 27.3867V40.7917H25.6249V35.775C25.6249 35.0003 25.6249 34.3318 25.6973 33.7963C25.7743 33.2223 25.9481 32.6728 26.3938 32.2272C26.8394 31.7815 27.3901 31.6077 27.9629 31.5307C28.4984 31.4583 29.1669 31.4583 29.9428 31.4583H30.0571C30.8329 31.4583 31.5014 31.4583 32.0369 31.5307C32.6109 31.6077 33.1604 31.7815 33.6061 32.2272C34.0518 32.6728 34.2256 33.2223 34.3026 33.7963C34.3749 34.3318 34.3749 35.0003 34.3749 35.7762V40.7917H38.4583V27.3867ZM32.6249 40.7917V35.8333C32.6249 34.984 32.6226 34.4333 32.5689 34.0297C32.5176 33.6505 32.4359 33.5315 32.3683 33.465C32.3006 33.3985 32.1828 33.3157 31.8036 33.2643C31.3988 33.2107 30.8493 33.2083 29.9999 33.2083C29.1506 33.2083 28.5999 33.2107 28.1963 33.2643C27.8171 33.3157 27.6981 33.3985 27.6316 33.465C27.5651 33.5315 27.4823 33.6505 27.4309 34.0297C27.3773 34.4345 27.3749 34.984 27.3749 35.8333V40.7917H32.6249ZM29.9999 25.625C29.8084 25.625 29.6188 25.6627 29.4418 25.736C29.2649 25.8093 29.1041 25.9167 28.9687 26.0521C28.8333 26.1876 28.7259 26.3483 28.6526 26.5253C28.5793 26.7022 28.5416 26.8918 28.5416 27.0833C28.5416 27.2748 28.5793 27.4645 28.6526 27.6414C28.7259 27.8183 28.8333 27.9791 28.9687 28.1145C29.1041 28.2499 29.2649 28.3574 29.4418 28.4307C29.6188 28.5039 29.8084 28.5417 29.9999 28.5417C30.3867 28.5417 30.7576 28.388 31.0311 28.1145C31.3046 27.841 31.4583 27.4701 31.4583 27.0833C31.4583 26.6966 31.3046 26.3256 31.0311 26.0521C30.7576 25.7786 30.3867 25.625 29.9999 25.625ZM26.7916 27.0833C26.7916 26.2324 27.1296 25.4164 27.7313 24.8147C28.333 24.213 29.149 23.875 29.9999 23.875C30.8508 23.875 31.6669 24.213 32.2686 24.8147C32.8702 25.4164 33.2083 26.2324 33.2083 27.0833C33.2083 27.9342 32.8702 28.7503 32.2686 29.352C31.6669 29.9536 30.8508 30.2917 29.9999 30.2917C29.149 30.2917 28.333 29.9536 27.7313 29.352C27.1296 28.7503 26.7916 27.9342 26.7916 27.0833Z" fill="#9F6904"/>
</svg>
