<svg width="60" height="60" viewBox="0 0 60 60" fill="none" xmlns="http://www.w3.org/2000/svg">
<rect opacity="0.352743" width="60" height="60" rx="12" fill="#F8BA2B"/>
<path d="M41.1963 29.0648H40.2014C40.0148 26.9984 39.2021 25.0382 37.8718 23.4461L38.5774 22.7386C38.7543 22.5664 38.8557 22.331 38.8594 22.0841C38.8631 21.8372 38.7689 21.5989 38.5973 21.4213C38.4256 21.2438 38.1907 21.1415 37.9438 21.1368C37.6969 21.1322 37.4582 21.2256 37.28 21.3965L37.2576 21.4189L36.552 22.1245C34.9594 20.7938 32.9985 19.9811 30.9315 19.7949V18.8C30.9315 18.5524 30.8332 18.315 30.6581 18.14C30.4831 17.965 30.2457 17.8666 29.9982 17.8666C29.7506 17.8666 29.5132 17.965 29.3382 18.14C29.1632 18.315 29.0648 18.5524 29.0648 18.8V19.7949C26.9983 19.982 25.0381 20.7954 23.4462 22.1264L22.7387 21.4133C22.5627 21.2433 22.3269 21.1492 22.0822 21.1513C21.8375 21.1535 21.6034 21.2516 21.4303 21.4247C21.2573 21.5977 21.1591 21.8318 21.157 22.0765C21.1549 22.3212 21.249 22.557 21.419 22.733L22.1246 23.4368C20.7928 25.0322 19.9806 26.9966 19.7968 29.0666H18.8C18.5525 29.0666 18.3151 29.165 18.1401 29.34C17.965 29.515 17.8667 29.7524 17.8667 30C17.8667 30.2475 17.965 30.4849 18.1401 30.6599C18.3151 30.835 18.5525 30.9333 18.8 30.9333H19.795C19.981 32.9994 20.7931 34.9596 22.1227 36.552L21.4171 37.2576C21.2389 37.4296 21.1363 37.6654 21.1319 37.9131C21.1275 38.1607 21.2217 38.4 21.3938 38.5782C21.5658 38.7565 21.8016 38.859 22.0493 38.8634C22.2969 38.8678 22.5362 38.7736 22.7144 38.6016L22.7368 38.5773L23.4424 37.8717C25.0348 39.203 26.9958 40.0165 29.063 40.2032V41.1981C29.063 41.4456 29.1613 41.683 29.3363 41.8581C29.5114 42.0331 29.7488 42.1314 29.9963 42.1314C30.2438 42.1314 30.4812 42.0331 30.6563 41.8581C30.8313 41.683 30.9296 41.4456 30.9296 41.1981V40.2032C32.9962 40.0161 34.9564 39.2027 36.5483 37.8717L37.2558 38.5773C37.428 38.7542 37.6634 38.8556 37.9103 38.8594C38.1572 38.8631 38.3955 38.7688 38.5731 38.5972C38.7506 38.4256 38.8529 38.1906 38.8576 37.9437C38.8622 37.6968 38.7689 37.4582 38.5979 37.28L38.5755 37.2576L37.8699 36.552C39.2009 34.9601 40.0143 32.9999 40.2014 30.9333H41.1963C41.4438 30.9333 41.6812 30.835 41.8563 30.6599C42.0313 30.4849 42.1296 30.2475 42.1296 30C42.1296 29.7524 42.0313 29.515 41.8563 29.34C41.6812 29.165 41.4438 29.0648 41.1963 29.0648ZM30.9296 21.697C32.4953 21.8692 33.9798 22.4829 35.2099 23.4666L31.1966 27.48C31.109 27.4405 31.02 27.4043 30.9296 27.3717V21.697ZM29.063 21.697V27.3717C28.9733 27.4044 28.8848 27.4405 28.7979 27.48L24.7846 23.4666C26.0147 22.4829 27.4973 21.8692 29.063 21.697ZM23.4648 24.7864L27.4782 28.7997C27.4393 28.8873 27.4038 28.9763 27.3718 29.0666H21.6934C21.8655 27.501 22.4792 26.0165 23.463 24.7864M21.6934 30.9333H27.3699C27.401 31.0229 27.4371 31.1119 27.4782 31.2002L23.4648 35.2136C22.4804 33.9837 21.866 32.4992 21.6934 30.9333ZM29.0667 38.301C27.5008 38.1284 26.0163 37.514 24.7864 36.5296L28.7998 32.5162C28.8869 32.5573 28.9759 32.5934 29.0667 32.6245V38.301ZM30.9334 38.301V32.6264C31.0242 32.594 31.1132 32.5579 31.2003 32.5181L35.2136 36.5314C33.9835 37.5152 32.499 38.1289 30.9334 38.301ZM36.5334 35.2098L32.52 31.1965C32.5611 31.1094 32.5972 31.0204 32.6283 30.9296H38.3048C38.1316 32.4956 37.5166 33.9801 36.5315 35.2098M32.6264 29.0666C32.5938 28.9763 32.5577 28.8873 32.5182 28.7997L36.5315 24.7864C37.5149 26.016 38.1286 27.4997 38.3011 29.0648L32.6264 29.0666Z" fill="#9F6904"/>
</svg>
