<svg width="60" height="60" viewBox="0 0 60 60" fill="none" xmlns="http://www.w3.org/2000/svg">
<rect opacity="0.352743" width="60" height="60" rx="12" fill="#F8BA2B"/>
<path d="M23.9007 44.7247L27.6338 40.8997C26.3295 40.616 25.0871 40.0995 23.9661 39.375L23.9007 44.7247ZM36.0993 15.2759L32.3662 19.1003C33.6705 19.3841 34.913 19.9008 36.0339 20.6256L36.0993 15.2759ZM19.1009 32.3662L15.2753 36.0982L20.625 36.0334C19.9007 34.9125 19.3844 33.6703 19.1009 32.3662ZM40.8991 27.6343L44.7236 23.9013L39.3739 23.9666C40.0987 25.0876 40.6153 26.33 40.8991 27.6343ZM20.6261 23.9661L15.2764 23.9007L19.1009 27.6338C19.3847 26.3295 19.9013 25.087 20.6261 23.9661ZM39.3739 36.0339L44.7236 36.0987L40.8991 32.3662C40.6153 33.6705 40.0987 34.913 39.3739 36.0339ZM27.6338 19.1003L23.9018 15.2753L23.9661 20.625C25.0871 19.9005 26.3295 19.384 27.6338 19.1003ZM32.3662 40.8997L36.0993 44.7241L36.0339 39.375C34.9129 40.0995 33.6705 40.616 32.3662 40.8997ZM20.8365 36.3548L18.7301 41.2694L23.6452 39.163C22.55 38.4007 21.599 37.4499 20.8365 36.3548ZM39.163 23.6457L41.2694 18.7306L36.3548 20.837C37.4499 21.5995 38.4007 22.5505 39.163 23.6457ZM18.8438 30C18.8438 29.3211 18.9144 28.6591 19.0308 28.0126L14.0625 29.9995L19.0302 31.9863C18.9089 31.3311 18.8465 30.6664 18.8438 30ZM45.9375 30L40.9682 28.0126C41.0845 28.6591 41.1552 29.3211 41.1552 30C41.1552 30.6789 41.0845 31.3414 40.9682 31.9874L45.9375 30ZM23.6457 20.8365L18.7306 18.7301L20.837 23.6452C21.5986 22.5492 22.5497 21.598 23.6457 20.8365ZM36.3548 39.163L41.2694 41.2694L39.163 36.3548C38.4015 37.4506 37.4506 38.4015 36.3548 39.163ZM31.9874 19.0308L30.0005 14.0625L28.0126 19.0308C28.668 18.9092 29.3329 18.8466 29.9995 18.8438C30.6789 18.8438 31.3409 18.9144 31.9874 19.0308ZM28.0126 40.9692L30.0005 45.9375L31.9874 40.9692C31.3317 41.0909 30.6664 41.1535 29.9995 41.1562C29.3211 41.1562 28.6591 41.0856 28.0126 40.9692Z" fill="#F8BA2B"/>
<path d="M29.9995 19.9062C24.4256 19.9062 19.9057 24.4261 19.9057 30C19.9057 35.5739 24.4256 40.0938 29.9995 40.0938C35.5744 40.0938 40.0927 35.5744 40.0927 30C40.0927 24.4256 35.5744 19.9062 29.9995 19.9062ZM29.9995 39.0312C25.0195 39.0312 20.9682 34.9799 20.9682 30C20.9682 25.0201 25.0195 20.9688 29.9995 20.9688C34.9794 20.9688 39.0302 25.0201 39.0302 30C39.0302 34.9799 34.9794 39.0312 29.9995 39.0312Z" fill="#F8BA2B"/>
<path d="M34.2346 32.7854C31.5056 34.6889 28.479 34.6777 25.767 32.7854C25.4403 32.558 25.1465 32.9522 25.3675 33.3167C26.1941 34.6782 27.8628 35.8906 30.0011 35.8906C32.1383 35.8906 33.8069 34.6782 34.6341 33.3167C34.8551 32.9527 34.5613 32.558 34.2346 32.7854ZM28.4084 29.6473C28.5704 29.8162 28.8929 29.5049 28.8307 29.3317C28.2049 27.6116 27.263 26.7515 26.3206 26.7515C25.3781 26.7515 24.4357 27.6116 23.8109 29.3317C23.7488 29.5049 24.0713 29.8162 24.2333 29.6473C24.8394 29.0072 25.5646 28.7527 26.3206 28.7527C27.0765 28.7527 27.8033 29.0072 28.4084 29.6473ZM33.6784 26.7515C32.7375 26.7515 31.794 27.6116 31.1682 29.3317C31.1061 29.5049 31.4296 29.8162 31.5906 29.6473C32.1967 29.0072 32.9219 28.7527 33.6784 28.7527C34.4359 28.7527 35.1611 29.0072 35.7673 29.6473C35.9293 29.8162 36.2507 29.5049 36.1896 29.3317C35.5638 27.6116 34.6214 26.7515 33.6784 26.7515Z" fill="#F8BA2B"/>
</svg>
