<svg width="60" height="60" viewBox="0 0 60 60" fill="none" xmlns="http://www.w3.org/2000/svg">
<rect opacity="0.352743" width="60" height="60" rx="12" fill="#F8BA2B"/>
<path d="M29.8 28.2V42M29.8 28.2C28.6684 27.6 24.9244 26.4 19 26.4V39.6C21.7774 39.6 27.8254 39.6 29.8 42M29.8 28.2C30.9316 27.6 34.6756 26.4 40.6 26.4V39.6C37.8226 39.6 31.7746 39.6 29.8 42" stroke="#9F6904" stroke-width="2" stroke-linecap="round" stroke-linejoin="round"/>
<path d="M29.8 27.6C32.451 27.6 34.6 25.451 34.6 22.8C34.6 20.149 32.451 18 29.8 18C27.149 18 25 20.149 25 22.8C25 25.451 27.149 27.6 29.8 27.6Z" stroke="#9F6904" stroke-width="2"/>
</svg>
