<svg width="60" height="60" viewBox="0 0 60 60" fill="none" xmlns="http://www.w3.org/2000/svg">
<rect opacity="0.352743" width="60" height="60" rx="12" fill="#F8BA2B"/>
<path fill-rule="evenodd" clip-rule="evenodd" d="M27.6667 17.75C25.765 17.75 24.4583 19.3367 24.4583 21.1217C24.4583 23.2683 25.8817 24.9133 27.1067 25.94C27.8119 26.5299 28.5786 27.0423 29.3933 27.4683C29.4633 27.5033 29.5217 27.5383 29.5683 27.55L29.615 27.5733H29.6267C29.86 27.69 30.14 27.69 30.3733 27.585H30.385L30.4317 27.55C30.4783 27.5383 30.5367 27.5033 30.6067 27.4683C31.4214 27.0423 32.1881 26.5299 32.8933 25.94C34.1183 24.9133 35.5417 23.2683 35.5417 21.1217C35.5417 19.3367 34.235 17.75 32.3333 17.75C31.645 17.75 31.0267 17.9017 30.4667 18.24C30.3033 18.345 30.14 18.4733 30 18.6017C29.86 18.4733 29.6967 18.345 29.5333 18.24C28.9733 17.9017 28.355 17.75 27.6667 17.75ZM30.28 25.6483C30.175 25.7067 30.0817 25.765 30 25.8117C29.9183 25.765 29.825 25.7067 29.72 25.6483C29.1956 25.3379 28.6963 24.9868 28.2267 24.5983C27.1183 23.6767 26.2083 22.475 26.2083 21.1217C26.2083 20.1533 26.8733 19.5 27.6667 19.5C28.0867 19.5 28.3783 19.5933 28.6 19.7217C28.8217 19.8617 29.0317 20.095 29.2183 20.4683C29.37 20.76 29.6733 20.9467 30 20.9467C30.3267 20.9467 30.63 20.76 30.7817 20.4683C30.9683 20.095 31.1783 19.8617 31.4 19.7217C31.6217 19.5933 31.9133 19.5 32.3333 19.5C33.1267 19.5 33.7917 20.1533 33.7917 21.1217C33.7917 22.475 32.8817 23.6767 31.7733 24.5983C31.2367 25.0533 30.6883 25.4033 30.28 25.6483ZM25.9167 30C22.86 30 20.375 32.485 20.375 35.5417C20.375 38.5983 22.86 41.0833 25.9167 41.0833C26.8967 41.0833 27.83 40.8267 28.6233 40.3717C27.4391 39.042 26.7869 37.3222 26.7917 35.5417C26.7917 33.6867 27.48 31.995 28.6233 30.7117C27.83 30.2567 26.8967 30 25.9167 30ZM25.9167 42.8333C27.4333 42.8333 28.8333 42.3783 30 41.585C31.1667 42.3783 32.5667 42.8333 34.0833 42.8333C38.1083 42.8333 41.375 39.5667 41.375 35.5417C41.375 31.5167 38.1083 28.25 34.0833 28.25C32.5667 28.25 31.1667 28.705 30 29.4983C28.8333 28.705 27.4333 28.25 25.9167 28.25C21.8917 28.25 18.625 31.5167 18.625 35.5417C18.625 39.5667 21.8917 42.8333 25.9167 42.8333ZM34.0833 30C33.1033 30 32.17 30.2567 31.3767 30.7117C32.52 31.995 33.2083 33.6867 33.2083 35.5417C33.2083 37.3967 32.52 39.0883 31.3767 40.3717C32.17 40.8267 33.1033 41.0833 34.0833 41.0833C37.14 41.0833 39.625 38.5983 39.625 35.5417C39.625 32.485 37.14 30 34.0833 30ZM31.4583 35.5417C31.4583 34.095 30.91 32.7767 30 31.7967C29.09 32.7767 28.5417 34.095 28.5417 35.5417C28.5417 36.9883 29.09 38.3067 30 39.2867C30.91 38.3067 31.4583 36.9883 31.4583 35.5417Z" fill="#9F6904"/>
</svg>
